<?xml version="1.0" encoding="utf-8"?>
<!-- Generator: Adobe Illustrator 26.0.3, SVG Export Plug-In . SVG Version: 6.00 Build 0)  -->
<svg version="1.1" id="Layer_1" xmlns="http://www.w3.org/2000/svg" xmlns:xlink="http://www.w3.org/1999/xlink" x="0px" y="0px"
	 viewBox="0 0 841.89 595.28" style="enable-background:new 0 0 841.89 595.28;" xml:space="preserve">
<style type="text/css">
	.st0{fill:#355741;}
</style>
<g>
	<path class="st0" d="M565,106.68H299.02c-6.55,0-11.86-5.31-11.86-11.86l0,0c0-43.56,35.31-78.87,78.87-78.87h131.96
		c43.56,0,78.87,35.31,78.87,78.87l0,0C576.86,101.37,571.55,106.68,565,106.68z"/>
	<path class="st0" d="M555.72,167.51H308.3c-7.69,0-13.92-6.23-13.92-13.92v-6.19c0-7.69,6.23-13.92,13.92-13.92h247.42
		c7.69,0,13.92,6.23,13.92,13.92v6.19C569.64,161.27,563.41,167.51,555.72,167.51z"/>
	<path class="st0" d="M543.87,268.54H320.15c-18.22,0-32.99-14.77-32.99-32.99V210.8c0-9.11,7.39-16.49,16.49-16.49h256.7
		c9.11,0,16.49,7.38,16.49,16.49v24.74C576.86,253.77,562.09,268.54,543.87,268.54z"/>
</g>
</svg>
